<?xml version="1.0" standalone="no"?>
<!DOCTYPE svg PUBLIC "-//W3C//DTD SVG 20010904//EN"
 "http://www.w3.org/TR/2001/REC-SVG-20010904/DTD/svg10.dtd">
<svg version="1.0" xmlns="http://www.w3.org/2000/svg"
 width="758.000000pt" height="758.000000pt" viewBox="0 0 758.000000 758.000000"
 preserveAspectRatio="xMidYMid meet">
<metadata>
Created by potrace 1.14, written by Peter Selinger 2001-2017
</metadata>
<g transform="translate(0.000000,758.000000) scale(0.100000,-0.100000)"
fill="#000000" stroke="none">
<path d="M4007 7548 c-16 -11 -72 -31 -125 -44 -144 -36 -244 -104 -259 -176
-7 -35 -6 -34 -71 -42 -30 -3 -65 -12 -79 -19 -22 -12 -16 -13 59 -12 45 1 63
1 38 -1 -83 -7 -107 -14 -107 -30 0 -8 12 -21 26 -29 39 -20 137 -85 128 -85
-15 0 -142 61 -160 78 -19 16 -19 16 -9 -3 6 -11 27 -38 46 -59 49 -54 45 -57
-9 -7 -83 77 -63 39 25 -47 50 -49 147 -110 193 -123 36 -10 42 -8 66 15 15
14 31 26 37 26 24 0 84 105 84 146 0 34 -59 88 -124 113 -28 11 -42 20 -31 21
11 0 34 8 50 18 17 10 42 22 57 25 14 4 37 21 50 38 33 44 60 70 101 99 50 35
80 76 72 100 -8 25 -23 25 -58 -2z m-277 -152 c0 -2 -8 -10 -17 -17 -16 -13
-17 -12 -4 4 13 16 21 21 21 13z m17 -51 c-15 -14 -25 -25 -21 -25 4 0 0 -8
-9 -18 -10 -10 -14 -22 -10 -26 4 -3 -4 -4 -18 -2 -13 2 -33 5 -44 6 -20 1
-20 1 -1 15 11 8 28 27 38 42 17 24 19 25 13 6 -8 -29 -6 -29 35 2 43 32 53
32 17 0z m-232 -135 c13 -5 14 -9 5 -9 -8 0 -24 4 -35 9 -13 5 -14 9 -5 9 8 0
24 -4 35 -9z"/>
<path d="M3690 7306 c7 -7 14 -6 21 1 9 9 7 12 -9 10 -14 -1 -18 -5 -12 -11z"/>
<path d="M3535 7523 c-28 -42 -31 -88 -9 -143 l13 -35 -4 34 c-4 39 12 92 24
73 4 -6 4 -38 0 -69 -3 -32 -5 -59 -4 -61 2 -2 10 17 18 42 10 29 13 64 10
103 -3 32 -6 66 -6 76 -2 26 -14 21 -42 -20z"/>
<path d="M2965 7373 c-167 -16 -322 -82 -424 -182 -23 -23 -46 -39 -51 -36
-16 10 -203 6 -274 -5 -144 -23 -265 -84 -344 -174 -17 -20 -34 -36 -37 -36
-4 0 -32 19 -63 43 -189 143 -353 205 -549 208 -71 1 -109 -17 -124 -60 -7
-18 -3 -28 20 -52 32 -31 68 -37 131 -19 134 37 326 -9 494 -119 68 -43 67
-42 44 -107 -12 -33 -23 -61 -24 -62 -1 -2 -35 16 -76 41 -207 126 -344 170
-523 168 -240 -2 -385 -96 -385 -248 0 -26 7 -61 15 -77 19 -35 6 -48 -34 -36
-25 7 -115 -10 -149 -29 -13 -7 -13 -10 5 -19 40 -22 70 -21 109 4 42 25 41
30 -1 14 -15 -6 -32 -7 -38 -3 -14 9 19 21 60 22 l33 1 -35 -46 c-19 -25 -38
-58 -42 -72 -3 -15 -13 -38 -22 -51 -15 -23 -14 -23 9 -16 74 22 121 72 119
129 0 31 0 31 -10 6 -11 -28 -38 -60 -50 -60 -10 0 -1 24 26 68 11 18 25 30
32 28 7 -3 10 1 6 11 -5 12 -1 14 18 8 13 -4 27 -10 30 -14 8 -8 20 -71 14
-71 -2 0 -9 15 -14 33 l-10 32 3 -35 c2 -19 7 -44 11 -55 31 -76 56 -124 78
-148 23 -24 31 -27 69 -21 51 8 127 49 129 69 1 8 2 21 3 28 4 24 -33 84 -80
126 l-47 44 54 -5 c38 -4 65 -1 89 9 19 9 44 17 55 18 73 7 115 26 115 51 0
10 -13 14 -42 13 -24 0 -72 8 -108 18 -100 29 -181 21 -225 -23 -13 -13 -14
-19 -4 -25 7 -4 20 -4 28 0 9 4 32 4 51 0 l35 -6 -42 -2 c-33 -1 -41 -4 -37
-16 5 -13 2 -13 -30 0 -45 19 -57 19 -31 -1 19 -15 19 -15 -10 -8 -28 7 -29 6
-15 -11 13 -16 8 -15 -27 5 -48 26 -66 62 -65 125 1 76 38 124 134 169 80 38
149 49 257 43 112 -7 135 -11 213 -38 83 -28 161 -66 260 -126 l87 -54 0 -57
c1 -95 20 -160 74 -244 81 -127 195 -211 377 -277 82 -29 216 -64 291 -75 65
-10 70 -14 55 -44 -35 -68 -58 -174 -60 -272 0 -55 -3 -100 -6 -101 -3 -1 -34
-2 -70 -4 -49 -2 -78 3 -120 21 -73 30 -122 34 -226 17 -98 -15 -117 -23 -86
-34 28 -11 94 -96 132 -172 17 -34 45 -79 62 -100 l31 -39 -36 5 c-50 7 -107
-22 -150 -75 -20 -25 -37 -47 -37 -50 0 -3 12 -4 26 -2 15 1 56 -7 92 -18 86
-26 148 -21 197 17 20 15 34 29 31 32 -3 3 -25 0 -48 -6 -56 -15 -85 -17 -129
-8 -51 10 -68 32 -38 48 20 10 74 9 194 -5 52 -6 89 -8 135 -7 l45 1 -93 53
c-117 66 -166 113 -204 193 -33 70 -30 87 10 78 59 -14 112 -56 179 -141 89
-113 135 -165 141 -158 6 6 -21 80 -59 163 -16 35 -29 65 -29 67 0 8 70 5 71
-2 4 -45 78 -367 98 -428 26 -82 56 -145 81 -175 25 -28 25 -29 -28 100 -42
103 -68 196 -78 282 -7 58 11 114 54 167 19 24 22 24 61 11 22 -7 55 -25 73
-40 l32 -27 -37 -32 c-83 -73 -119 -208 -90 -336 19 -86 22 -93 33 -75 7 11
11 11 23 1 11 -8 17 -9 22 -1 4 6 37 36 73 66 63 52 67 54 72 33 4 -17 -4 -32
-36 -61 -78 -72 -119 -215 -90 -313 l12 -40 18 80 c15 63 25 86 51 112 18 18
38 33 44 33 7 0 11 -28 12 -77 0 -43 1 -93 2 -111 1 -17 1 -32 1 -32 -1 0 -17
6 -35 14 -39 16 -69 8 -91 -23 -14 -19 -15 -17 -28 31 -7 28 -22 69 -34 92
-28 55 -107 133 -154 153 -81 34 -181 4 -221 -67 -22 -39 -28 -90 -11 -90 6 0
10 12 10 26 0 50 39 99 96 119 131 45 270 -88 309 -295 6 -31 7 -198 1 -225
-2 -11 -7 -41 -10 -68 -11 -79 -65 -274 -112 -405 -66 -182 -132 -334 -255
-589 -38 -79 -69 -145 -69 -147 0 -26 -82 -169 -164 -286 -325 -465 -459 -731
-522 -1035 -28 -137 -39 -331 -24 -435 17 -115 22 -137 50 -220 16 -46 28 -86
26 -88 -6 -5 -74 141 -95 204 -38 114 -49 194 -48 349 0 83 4 164 8 180 5 17
11 44 13 60 27 155 100 353 223 605 53 107 104 224 115 260 51 169 8 326 -110
401 -80 51 -194 32 -257 -43 -41 -48 -29 -54 20 -9 54 50 85 64 143 63 113 0
216 -144 208 -289 -5 -81 -21 -133 -76 -248 -26 -55 -72 -152 -103 -215 -87
-183 -140 -334 -184 -530 -23 -105 -25 -357 -3 -466 21 -103 73 -238 130 -335
32 -55 122 -182 140 -199 3 -3 28 -32 55 -65 63 -75 68 -80 146 -146 164 -139
364 -242 639 -328 l65 -20 -50 4 c-152 14 -280 49 -504 139 -91 37 -178 69
-195 72 -16 3 -33 7 -38 10 -18 12 -146 6 -173 -7 -103 -51 -94 -205 15 -271
91 -55 202 -73 451 -72 146 0 186 -3 186 -13 0 -7 -12 -13 -26 -14 -72 -2
-163 -35 -187 -67 -17 -21 -18 -63 -3 -96 43 -94 250 -53 472 95 68 46 94 51
47 11 -34 -31 -38 -67 -9 -85 34 -22 97 18 154 98 l21 28 229 0 c210 0 433 -5
810 -18 597 -21 1260 -27 1336 -11 71 15 104 36 128 84 19 38 48 136 55 189 2
15 9 57 14 93 6 36 14 90 17 120 3 30 8 66 10 80 2 14 6 48 10 75 3 28 7 66
10 85 3 19 7 76 10 125 7 99 -5 138 -41 143 -40 6 -61 -41 -89 -197 -9 -52
-47 -166 -72 -216 -72 -143 -177 -212 -388 -256 -128 -26 -246 -34 -540 -34
-281 0 -370 6 -488 30 -106 22 -163 50 -222 109 -42 42 -56 65 -77 131 -15 44
-30 109 -33 145 -4 36 -9 76 -11 90 -2 14 -4 461 -4 993 0 684 3 974 11 989
11 20 15 20 332 13 177 -4 349 -8 382 -10 173 -8 323 -17 345 -20 191 -25 294
-73 351 -162 33 -53 56 -153 62 -269 5 -94 18 -124 52 -124 49 0 55 28 70 374
4 70 8 142 10 160 2 17 6 63 10 101 5 59 23 178 41 275 16 87 16 127 -1 143
-26 27 -41 21 -97 -39 -135 -143 -189 -150 -1167 -155 -317 -1 -385 1 -392 12
-5 8 -9 474 -9 1055 0 979 1 1042 18 1056 14 12 50 14 202 12 308 -4 743 -14
780 -19 19 -2 63 -6 98 -9 98 -8 229 -43 294 -78 128 -68 178 -170 193 -397 5
-88 21 -121 55 -121 43 0 65 63 75 210 3 52 8 124 10 160 3 36 7 103 10 150 9
139 25 244 45 300 13 38 18 103 9 128 -10 28 -42 29 -96 2 -99 -47 -218 -53
-1233 -54 -720 -1 -1165 5 -1176 17 -2 1 11 25 28 52 44 70 88 190 104 285 12
68 11 67 71 75 62 7 72 9 143 24 70 15 81 18 150 41 149 50 286 128 382 218
l46 43 94 -64 c186 -127 341 -172 583 -170 79 1 131 7 185 23 52 14 111 22
195 24 66 2 138 7 160 10 101 17 156 30 231 57 l81 28 54 -20 c30 -12 56 -23
58 -25 9 -8 -109 -54 -188 -72 -61 -15 -122 -20 -222 -20 -77 -1 -139 -4 -140
-7 -3 -23 16 -27 131 -28 183 -2 355 25 465 73 49 21 50 21 135 4 123 -26 267
-24 352 5 78 26 167 82 221 139 54 56 29 67 -26 12 -84 -85 -184 -135 -296
-147 -76 -8 -88 -8 -151 1 -155 22 -151 19 -72 79 123 93 162 157 121 198 -10
10 -26 19 -35 19 -30 0 -70 -32 -92 -74 -27 -50 -74 -103 -124 -140 l-36 -27
-58 21 c-32 11 -61 20 -64 20 -3 0 20 15 50 32 147 85 305 227 419 377 32 42
65 82 74 89 38 32 81 118 107 215 15 56 30 110 35 119 7 17 4 17 -35 -1 -116
-52 -164 -112 -175 -217 -3 -32 -8 -77 -10 -99 -4 -37 -3 -36 14 15 9 30 23
66 30 80 16 30 61 80 73 80 23 0 -34 -138 -87 -211 -19 -27 -35 -54 -35 -59 0
-6 -5 -10 -10 -10 -6 0 -14 -9 -18 -21 -4 -11 -50 -63 -102 -116 -95 -95 -207
-178 -310 -228 l-55 -27 -123 54 c-67 29 -122 57 -122 62 0 4 13 25 28 45 80
103 137 254 127 335 -14 121 -142 190 -216 117 -34 -35 -37 -69 -8 -100 24
-26 26 -25 33 13 11 61 57 86 111 60 85 -40 89 -136 12 -288 -28 -58 -97 -159
-116 -170 -5 -3 -33 5 -63 18 -129 57 -316 108 -482 131 -89 12 -311 12 -371
1 -16 -4 -43 -9 -60 -12 -16 -3 -62 -15 -102 -26 l-72 -21 -133 76 c-246 139
-273 153 -383 207 -158 76 -293 126 -429 157 -44 10 -86 27 -116 49 -53 38
-138 78 -190 89 -19 4 -39 10 -43 12 -21 12 104 107 188 143 180 77 403 75
590 -5 97 -42 125 -30 33 14 -100 47 -161 61 -338 74 -14 2 -38 1 -55 0z
m-493 -242 c5 -1 -2 -24 -26 -88 -1 0 -43 -8 -95 -17 -52 -9 -101 -22 -108
-28 -7 -6 -13 -8 -13 -5 0 19 -152 -75 -203 -125 l-60 -59 -24 26 c-32 34 -25
51 46 122 95 94 216 155 346 176 17 2 116 1 137 -2z m195 -51 c34 -16 73 -36
85 -45 22 -15 21 -16 -32 -10 -30 3 -97 7 -149 9 -51 3 -95 7 -98 10 -3 2 5
22 17 44 l22 39 47 -10 c25 -5 74 -22 108 -37z m-62 -75 c79 -6 178 -28 229
-49 65 -27 98 -153 62 -236 -23 -55 -77 -85 -150 -84 -71 0 -121 22 -180 80
-52 50 -97 149 -103 226 -6 66 1 78 46 73 14 -2 57 -6 96 -10z m-172 -42 c-7
-112 35 -222 112 -298 116 -114 281 -101 362 28 34 54 39 136 13 195 -12 27
-15 42 -8 42 25 0 301 -144 403 -211 97 -63 233 -162 319 -232 l29 -23 -139
-91 c-218 -142 -316 -194 -448 -238 -103 -35 -121 -33 -124 8 -1 17 -7 46 -12
62 -5 17 -11 49 -13 72 l-4 41 69 27 c70 28 120 63 218 155 30 28 72 63 93 78
47 31 38 38 -59 49 -135 16 -220 -11 -297 -97 -25 -28 -73 -69 -107 -91 -33
-23 -83 -67 -111 -98 l-50 -57 -57 4 c-164 10 -336 89 -549 249 -210 158 -201
150 -196 196 3 23 10 50 15 61 9 17 12 16 45 -15 19 -19 58 -62 86 -97 47 -58
52 -61 59 -41 7 17 -2 34 -48 91 l-57 69 46 43 c89 86 248 157 365 164 l49 3
-4 -48z m607 -30 c87 -30 132 -49 250 -106 154 -76 510 -276 510 -287 -1 -3
-26 -17 -56 -32 -43 -22 -60 -26 -75 -18 -10 6 -19 15 -19 20 0 6 -6 10 -14
10 -8 0 -16 4 -18 8 -4 11 -147 118 -253 189 -139 94 -328 194 -455 243 -19 7
-39 17 -45 22 -10 9 64 -12 175 -49z m-995 -412 c199 -152 387 -241 540 -256
39 -4 71 -9 73 -10 2 -2 -7 -20 -20 -42 -13 -21 -29 -50 -35 -65 -11 -24 -16
-26 -50 -22 -65 10 -221 53 -291 81 -196 78 -328 199 -372 340 -11 36 -20 76
-20 90 0 24 3 22 63 -26 34 -29 85 -69 112 -90z m2350 74 c37 -3 76 -8 88 -11
12 -2 48 -9 80 -14 81 -15 248 -66 335 -102 l73 -30 -23 -23 c-38 -37 -157
-124 -200 -146 -41 -21 -75 -22 -186 -5 -64 10 -227 58 -317 94 -117 46 -367
174 -358 182 12 10 125 40 175 46 160 19 218 21 333 9z m-3475 -43 c10 -17 23
-40 31 -49 8 -11 3 -9 -11 4 -32 28 -68 87 -50 81 7 -2 21 -18 30 -36z m3091
-120 c222 -112 474 -201 572 -202 53 0 26 -18 -45 -30 -70 -12 -266 -9 -333 5
-134 28 -241 73 -364 155 l-91 61 33 49 c17 27 37 50 43 50 5 0 89 -40 185
-88z m-950 27 c-48 -45 -131 -98 -131 -84 0 4 9 28 21 55 24 56 61 80 124 79
l40 0 -54 -50z m687 2 c-6 -10 -18 -17 -25 -14 -17 7 2 33 23 33 11 0 12 -4 2
-19z m-41 -38 c6 -18 -81 -95 -166 -147 -86 -52 -197 -97 -309 -125 -82 -20
-82 -16 -2 19 64 29 181 98 335 199 106 69 134 80 142 54z m1319 -7 c28 -14
124 -58 134 -61 40 -13 62 -27 54 -35 -12 -12 -195 -57 -264 -65 -93 -10 -180
-13 -180 -7 0 4 25 23 56 42 31 19 81 58 113 87 31 29 56 52 57 53 0 0 14 -6
30 -14z m-2206 -1079 c-32 -32 -71 -101 -96 -167 l-13 -35 0 40 c-2 62 29 133
78 182 38 39 45 43 53 29 7 -13 2 -25 -22 -49z m65 -74 c6 -30 1 -39 -57 -105
-35 -40 -73 -87 -85 -103 -18 -24 -15 -9 17 79 39 107 45 120 84 164 22 25 29
19 41 -35z m-69 -701 c23 -12 61 -6 84 14 14 12 16 -13 15 -237 l-1 -250 -34
-27 c-46 -35 -96 -88 -128 -135 -13 -20 -26 -36 -28 -35 -1 2 6 36 16 77 30
121 37 204 39 466 1 88 5 155 9 149 4 -6 16 -16 28 -22z m-70 -349 c-3 -10 -8
-47 -12 -83 -5 -55 -16 -108 -48 -242 -32 -128 -149 -374 -276 -576 -45 -73
-86 -134 -90 -137 -4 -3 21 54 56 126 35 72 64 132 64 134 0 1 20 46 45 98 25
53 45 98 45 101 0 2 13 33 29 68 16 35 52 124 79 198 47 126 64 180 92 288 6
23 13 42 16 42 3 0 3 -8 0 -17z m169 -295 c-1 -58 -3 -63 -39 -94 -20 -18 -68
-53 -106 -78 -38 -26 -71 -50 -74 -54 -3 -5 43 15 102 44 59 29 109 49 112 44
8 -13 4 -2232 -4 -2575 -7 -255 -10 -322 -15 -346 0 -3 -20 -12 -43 -18 -25
-8 -56 -28 -75 -49 l-33 -36 0 40 c0 29 10 54 40 98 43 63 49 95 24 120 -43
43 -120 -13 -139 -101 -13 -63 4 -122 50 -169 23 -24 47 -44 55 -44 10 0 10 3
0 15 -18 21 -6 43 34 62 28 13 41 14 60 5 22 -10 25 -16 21 -49 -11 -86 -17
-120 -27 -158 -5 -22 -12 -47 -13 -56 -4 -17 -43 -99 -48 -99 -2 0 -57 15
-123 34 -797 224 -1152 741 -989 1441 60 257 214 586 404 857 53 76 54 81 -57
-162 -116 -253 -161 -388 -187 -565 -12 -74 -14 -285 -4 -347 5 -29 12 -73 15
-98 3 -25 11 -54 17 -65 6 -11 10 -22 9 -25 -4 -12 34 -112 75 -195 95 -194
263 -378 465 -509 96 -62 296 -162 305 -152 9 8 8 9 -97 58 -381 179 -647 477
-741 828 -40 147 -46 413 -15 565 10 44 19 90 22 102 6 33 69 215 82 238 6 11
17 36 25 55 18 43 40 91 131 290 51 111 103 202 183 321 158 237 238 379 327
582 29 67 94 154 165 222 38 36 97 84 107 85 0 0 0 -28 -1 -62z"/>
<path d="M4175 6559 c-22 -4 -58 -10 -79 -13 -60 -10 -56 -16 11 -16 66 0 115
-13 151 -41 29 -22 20 -27 -42 -23 -66 4 -139 22 -203 50 -62 28 -68 25 -15
-6 136 -82 188 -99 293 -96 41 1 93 -1 117 -5 23 -3 42 -2 42 2 0 13 -74 95
-106 118 -37 26 -114 40 -169 30z"/>
<path d="M2758 3684 c-16 -8 -28 -22 -28 -31 0 -13 3 -13 15 -3 12 10 24 9 60
-5 25 -9 52 -14 60 -11 18 7 20 37 3 54 -16 16 -77 14 -110 -4z"/>
<path d="M2695 3611 c-25 -7 -65 -34 -65 -42 0 -3 18 -1 39 4 51 14 84 0 107
-45 35 -69 73 -88 95 -47 17 33 2 85 -32 110 -31 21 -105 32 -144 20z"/>
<path d="M2525 3061 c-8 -26 -74 -64 -157 -91 -131 -42 -195 -107 -221 -225
l-16 -70 27 30 c15 17 38 46 52 65 38 51 81 88 125 109 42 19 125 37 125 26 0
-3 -9 -23 -20 -45 -24 -47 -58 -74 -170 -135 -47 -26 -94 -56 -105 -67 l-20
-20 20 6 c11 3 31 7 45 10 59 10 128 30 170 49 122 55 162 123 162 274 0 96
-5 121 -17 84z"/>
<path d="M2039 1622 c-39 -34 -45 -86 -23 -181 24 -107 127 -305 203 -391 12
-14 34 -39 49 -55 43 -49 56 -52 34 -9 -20 41 -50 125 -57 165 -3 13 -7 35
-10 49 -6 32 -14 132 -20 231 -5 102 -21 156 -55 191 -38 37 -79 37 -121 0z"/>
<path d="M2575 870 c-6 -20 9 -50 26 -50 4 0 15 7 23 16 12 12 13 20 6 35 -14
25 -47 24 -55 -1z"/>
<path d="M3375 7209 c-4 -6 -5 -12 -2 -15 2 -3 7 2 10 11 7 17 1 20 -8 4z"/>
<path d="M3361 7173 c-1 -7 -29 -26 -63 -41 -46 -21 -76 -44 -111 -85 l-49
-57 48 0 c42 0 51 4 84 39 20 21 40 49 43 62 l6 24 -17 -21 c-22 -28 -72 -59
-72 -46 0 12 33 46 67 69 32 21 43 10 31 -33 -5 -20 -6 -65 -3 -103 4 -36 9
-79 10 -96 2 -16 4 -31 4 -33 2 -4 66 73 78 94 14 25 9 103 -11 164 l-14 45 0
-66 c1 -46 -4 -74 -16 -90 l-16 -23 -1 24 c-1 14 -2 38 -4 54 -1 16 2 47 7 69
5 22 7 45 4 51 -3 7 -5 7 -5 -1z"/>
<path d="M3430 7086 c0 -68 77 -231 140 -295 50 -51 86 -81 98 -81 4 0 13 5
19 11 18 18 -5 54 -71 118 -31 29 -67 67 -81 85 -28 38 -85 146 -85 163 0 6
-4 15 -10 18 -6 3 -10 -5 -10 -19z"/>
<path d="M3501 7033 c16 -32 57 -88 90 -125 50 -56 63 -66 81 -59 27 10 39 91
14 91 -20 0 -161 96 -185 126 -31 39 -31 28 0 -33z"/>
<path d="M968 6844 c-31 -16 -48 -42 -54 -82 l-4 -27 15 28 c14 24 35 37 35
21 0 -17 -43 -63 -53 -58 -7 4 -9 4 -5 -1 4 -4 2 -15 -5 -24 -6 -8 6 -2 27 14
25 19 48 49 63 83 31 71 30 73 -19 46z"/>
<path d="M5884 6780 c-43 -9 -62 -24 -130 -105 -56 -67 -53 -67 29 -2 36 28
107 53 107 37 0 -24 -156 -118 -200 -121 -9 0 -10 -3 -3 -5 16 -7 129 24 172
46 41 21 168 136 160 145 -9 8 -102 12 -135 5z"/>
<path d="M820 6534 c-25 -65 -33 -186 -17 -244 13 -45 30 -79 43 -84 25 -10
28 24 9 93 -28 104 -32 132 -25 199 3 34 4 62 3 62 -2 0 -8 -12 -13 -26z"/>
<path d="M848 6480 c-4 -40 19 -159 34 -177 15 -19 24 -16 43 13 16 25 16 28
-5 56 -12 17 -33 56 -45 87 l-23 56 -4 -35z"/>
<path d="M1410 6310 c-6 -4 -1 -11 14 -18 34 -15 68 -63 123 -176 53 -109 86
-148 165 -191 43 -23 63 -28 118 -27 62 1 130 9 138 16 1 2 -16 15 -40 29 -73
43 -92 70 -142 210 -24 64 -82 121 -147 142 -52 18 -208 28 -229 15z"/>
<path d="M1487 6014 c-11 -12 -8 -41 6 -53 19 -15 50 9 45 35 -3 19 -38 31
-51 18z"/>
<path d="M1500 5916 c-23 -8 -42 -25 -55 -49 -19 -34 -19 -39 -4 -64 19 -34
45 -32 77 5 69 80 81 85 147 58 53 -22 44 -6 -21 40 -30 20 -102 26 -144 10z"/>
<path d="M1743 5840 c-61 -21 -94 -44 -121 -85 -44 -65 -36 -162 16 -189 53
-27 87 -3 142 99 38 71 56 93 90 110 30 15 97 11 162 -8 45 -14 46 -14 35 5
-7 10 -40 33 -74 50 -80 39 -172 46 -250 18z"/>
<path d="M2480 5259 c-40 -16 -90 -70 -100 -111 -14 -51 -6 -89 25 -115 31
-27 57 -29 76 -7 11 13 10 24 -5 63 -33 86 -33 98 10 142 39 40 38 45 -6 28z"/>
<path d="M2359 5222 c-18 -9 -42 -29 -53 -44 -16 -23 -18 -32 -8 -53 18 -39
49 -28 58 20 7 41 22 65 46 74 17 6 18 9 6 14 -9 3 -31 -2 -49 -11z"/>
<path d="M2456 4741 c-20 -22 -23 -72 -7 -114 6 -15 33 -61 61 -102 46 -68
119 -202 125 -229 1 -6 8 -33 16 -61 l14 -50 6 45 c9 74 1 233 -17 312 -20 91
-57 171 -91 198 -33 26 -84 26 -107 1z"/>
<path d="M2021 4635 c-24 -7 -56 -26 -72 -41 -28 -27 -51 -83 -44 -107 2 -7 6
-24 9 -39 9 -40 62 -95 117 -123 26 -13 95 -38 155 -54 138 -39 202 -71 254
-127 63 -69 84 -123 87 -228 1 -59 -3 -101 -12 -125 l-15 -36 22 25 c11 14 34
53 50 88 97 204 46 454 -127 627 -131 132 -286 183 -424 140z"/>
<path d="M2214 4130 c-30 -12 -74 -68 -74 -94 0 -29 29 -56 61 -56 14 0 44 9
67 20 59 29 97 34 132 20 16 -7 30 -15 30 -19 1 -3 16 -23 35 -45 l34 -38 -4
28 c-20 123 -177 226 -281 184z"/>
<path d="M2435 3910 c-3 -5 -13 -10 -21 -10 -23 0 -90 -51 -108 -82 -25 -42
-19 -99 19 -187 19 -43 35 -94 35 -113 l0 -33 25 30 c70 87 99 194 74 278 -5
17 -10 53 -10 80 -1 48 -3 54 -14 37z"/>
<path d="M1902 3714 c-81 -17 -91 -24 -55 -39 36 -15 66 -45 128 -125 25 -33
59 -67 75 -75 l30 -15 -39 -35 c-26 -23 -41 -48 -47 -73 -4 -20 -8 -41 -9 -47
-1 -5 -5 -37 -9 -69 -3 -33 -15 -74 -26 -93 -18 -31 -18 -63 1 -63 32 0 147
59 189 97 43 38 50 42 50 24 0 -18 6 -16 58 20 67 47 80 69 88 146 4 32 11 66
16 75 7 14 5 18 -9 16 -10 0 -27 0 -38 1 -18 2 -17 3 5 13 l25 10 -26 8 c-68
20 -99 43 -140 107 -23 35 -57 76 -75 89 -43 33 -115 44 -192 28z m325 -289
c2 -1 -6 -19 -17 -40 -11 -22 -20 -45 -20 -53 0 -23 -37 -86 -67 -113 -49 -46
-138 -91 -119 -61 6 10 12 44 21 122 11 91 44 133 118 150 26 6 74 3 84 -5z"/>
<path d="M1544 937 l-42 -9 37 -37 c20 -20 49 -61 63 -91 30 -61 76 -113 121
-137 33 -16 152 -30 144 -16 -3 5 -31 22 -63 38 -31 17 -73 47 -94 68 -40 39
-79 127 -57 127 30 -1 95 -41 122 -75 89 -113 119 -147 122 -138 6 17 -44 133
-78 183 -47 69 -91 94 -169 95 -36 1 -84 -3 -106 -8z"/>
<path d="M1454 810 c-25 -10 -39 -39 -24 -54 7 -7 26 -7 60 0 41 9 52 8 66 -5
14 -15 16 -14 12 3 -6 37 -76 71 -114 56z"/>
<path d="M1465 711 c-54 -23 -78 -88 -45 -121 25 -25 50 -15 83 35 35 53 64
62 130 36 42 -16 32 5 -16 34 -45 26 -110 33 -152 16z"/>
</g>
</svg>
